<?xml version="1.0" encoding="UTF-8" standalone="no"?>
<svg xmlns:dc="http://purl.org/dc/elements/1.1/" xmlns:cc="http://creativecommons.org/ns#" xmlns:rdf="http://www.w3.org/1999/02/22-rdf-syntax-ns#" xmlns:svg="http://www.w3.org/2000/svg" xmlns="http://www.w3.org/2000/svg" xmlns:sodipodi="http://sodipodi.sourceforge.net/DTD/sodipodi-0.dtd" xmlns:inkscape="http://www.inkscape.org/namespaces/inkscape" version="1.1" id="svg2" xml:space="preserve" width="1440" height="1440" viewBox="0 0 1440 1440" sodipodi:docname="Samsung.ai"><metadata id="metadata8"><rdf:RDF><cc:Work rdf:about=""><dc:format>image/svg+xml</dc:format><dc:type rdf:resource="http://purl.org/dc/dcmitype/StillImage"/></cc:Work></rdf:RDF></metadata><defs id="defs6"><clipPath clipPathUnits="userSpaceOnUse" id="clipPath18"><path d="M 0,1080 H 1080 V 0 H 0 Z" id="path16"/></clipPath></defs><sodipodi:namedview pagecolor="#ffffff" bordercolor="#666666" borderopacity="1" objecttolerance="10" gridtolerance="10" guidetolerance="10" inkscape:pageopacity="0" inkscape:pageshadow="2" inkscape:window-width="640" inkscape:window-height="480" id="namedview4"/><g id="g10" inkscape:groupmode="layer" inkscape:label="Samsung" transform="matrix(1.3333333,0,0,-1.3333333,0,1440)"><g id="g12"><g id="g14" clip-path="url(#clipPath18)"><g id="g20" transform="translate(431.856,576.7778)"><path d="m 0,0 c -2.746,-8.002 -3.324,-15.284 -4.647,-22.358 -4.755,-25.435 -9.274,-50.915 -13.743,-76.402 -0.655,-3.734 -2.496,-4.997 -6.096,-4.95 -9.194,0.122 -18.395,0.209 -27.583,-0.05 -4.323,-0.121 -5.854,1.714 -6.574,5.726 -5.395,30.086 -10.957,60.142 -16.492,90.202 -0.425,2.31 -0.328,4.843 -2.449,6.874 -2.231,-1.795 -1.401,-4.193 -1.409,-6.215 -0.114,-29.651 -0.136,-59.301 -0.201,-88.952 -0.016,-7.453 -0.116,-7.542 -7.553,-7.569 -7.694,-0.028 -15.391,0.114 -23.082,-0.053 -3.987,-0.086 -5.881,1.264 -5.764,5.497 0.694,25.304 1.343,50.609 1.868,75.917 0.331,15.941 0.542,31.887 0.569,47.832 0.013,8.056 0.397,8.737 8.32,8.745 15.763,0.014 31.528,-0.115 47.29,0.077 4.425,0.054 6.248,-1.438 6.895,-5.917 3.085,-21.341 6.483,-42.636 9.791,-63.944 0.247,-1.588 -0.265,-4.158 1.671,-4.314 2.621,-0.211 2.104,2.568 2.377,4.27 3.454,21.48 6.945,42.953 10.212,64.461 0.685,4.509 2.448,6.456 7.25,6.388 15.948,-0.229 31.904,-0.23 47.852,-0.008 5.271,0.073 6.659,-2.138 6.784,-7.056 1.051,-41.244 2.266,-82.484 3.547,-123.721 0.234,-7.552 -0.047,-8.15 -7.421,-8.175 -7.881,-0.025 -15.765,0.102 -23.644,-0.037 -3.794,-0.067 -5.248,1.388 -5.417,5.257 C 1.038,-68.465 1.843,-38.438 1.44,-8.422 1.409,-6.07 2.055,-3.596 0,0" style="fill:#0f37a8;fill-opacity:1;fill-rule:nonzero;stroke:none" id="path22"/></g><g id="g24" transform="translate(833.9502,554.8569)"><path d="m 0,0 c 0,-8.788 -0.575,-17.622 0.126,-26.352 1.264,-15.734 0.15,-31.514 1.557,-47.243 0.705,-7.892 -0.048,-8.188 -7.978,-8.2 -7.133,-0.012 -14.279,0.282 -21.392,-0.086 -5.505,-0.285 -7.042,1.884 -7.018,7.178 0.171,38.477 0.098,76.954 0.08,115.431 -0.002,3.563 0.066,7.148 -0.291,10.684 -0.384,3.803 0.847,5.692 4.839,5.672 11.823,-0.057 23.649,-0.109 35.472,0.028 4.111,0.048 5.386,-2.676 6.697,-5.678 9.834,-22.527 19.673,-45.053 29.541,-67.565 1.467,-3.347 3.094,-6.623 5.33,-11.387 1.352,5.962 -0.041,10.156 -0.118,14.332 -0.398,21.571 -0.893,43.144 -1.681,64.703 -0.161,4.419 1.398,5.651 5.386,5.598 8.633,-0.115 17.269,-0.133 25.9,0.007 4.13,0.067 5.563,-1.67 5.555,-5.739 -0.088,-42.418 -0.091,-84.837 0.001,-127.255 0.009,-4.315 -1.488,-6.059 -5.906,-5.977 -10.507,0.194 -21.026,0.257 -31.529,-0.035 -4.528,-0.126 -6.695,1.799 -8.438,5.704 C 26.188,-53.908 16.051,-31.721 5.959,-9.515 4.434,-6.158 2.809,-2.847 1.229,0.486 0.819,0.324 0.409,0.162 0,0" style="fill:#0f37a8;fill-opacity:1;fill-rule:nonzero;stroke:none" id="path26"/></g><g id="g28" transform="translate(750.4355,554.5098)"><path d="m 0,0 c -0.007,-16.147 -0.03,-32.294 0.001,-48.441 0.026,-14.266 -6.629,-24.497 -19.292,-30.481 -19.001,-8.979 -38.584,-9.238 -57.922,-1.386 -14.936,6.066 -22.213,18.023 -22.287,34.037 -0.149,32.106 -0.052,64.213 -0.031,96.319 0.005,7.128 0.271,7.392 7.187,7.419 9.012,0.036 18.028,-0.141 27.035,0.064 4.605,0.105 6.371,-1.725 6.361,-6.286 -0.078,-32.293 0.025,-64.587 -0.059,-96.881 -0.02,-7.696 3.206,-11.796 10.058,-11.896 6.542,-0.097 10.061,3.658 10.082,11.423 0.087,31.355 0.042,62.71 0.049,94.065 0.002,9.514 0.005,9.518 9.59,9.522 7.698,0.002 15.401,-0.165 23.092,0.052 4.615,0.131 6.27,-1.631 6.218,-6.274 C -0.108,34.173 0.007,17.085 0,0" style="fill:#0f37a8;fill-opacity:1;fill-rule:nonzero;stroke:none" id="path30"/></g><g id="g32" transform="translate(530.0493,518.4854)"><path d="m 0,0 c 4.318,-0.002 8.65,-0.213 12.952,0.055 4.76,0.297 7.119,-1.36 6.633,-6.389 -0.197,-2.045 -0.085,-4.133 0.04,-6.191 0.374,-6.139 4.223,-9.786 10.13,-9.693 5.258,0.083 9.495,4.104 9.921,9.629 0.63,8.144 -4.323,12.88 -10.659,16.429 -7.858,4.401 -15.89,8.496 -23.87,12.681 -14.802,7.76 -23.063,19.378 -21.927,36.689 0.234,3.553 -10e-4,7.133 0.061,10.7 0.27,15.477 7.043,25.078 21.848,29.813 16.529,5.286 33.309,5.281 49.849,0.11 14.84,-4.641 21.317,-13.849 21.198,-29.322 -0.13,-16.879 2.78,-14.762 -14.843,-14.93 -5.445,-0.052 -10.89,0.065 -16.334,0.025 -3.738,-0.026 -5.584,1.614 -5.341,5.463 0.105,1.683 -0.076,3.382 0.007,5.068 0.228,4.66 -1.493,7.955 -6.114,9.575 -4.331,1.517 -8.367,0.925 -11.473,-2.258 -3.367,-3.448 -3.243,-7.882 -1.516,-12.122 1.388,-3.408 4.116,-5.708 7.221,-7.653 9.099,-5.701 19.103,-9.632 28.507,-14.733 21.026,-11.406 30.07,-39.099 19.8,-60.76 -3.632,-7.661 -9.624,-13.08 -17.269,-16.247 -19.178,-7.942 -38.761,-8.707 -58.146,-1.009 -13.565,5.385 -20.561,15.969 -20.552,30.661 0.009,16.628 -2.124,14.177 14.244,14.406 C -3.755,0.023 -1.878,0.001 0,0" style="fill:#0f37a8;fill-opacity:1;fill-rule:nonzero;stroke:none" id="path34"/></g><g id="g36" transform="translate(56.271,518.4873)"><path d="m 0,0 c 4.315,-0.003 8.643,-0.2 12.943,0.05 4.744,0.276 7.038,-1.344 6.591,-6.41 -0.227,-2.579 -0.035,-5.283 0.489,-7.822 1.046,-5.057 5.054,-8.067 10.115,-8.032 4.686,0.032 8.858,3.618 9.87,8.484 1.299,6.244 -2.051,12.7 -9.062,16.592 -7.87,4.37 -15.967,8.331 -23.852,12.675 -10.215,5.629 -19.886,12.147 -22.199,24.61 -2.13,11.475 -2.159,23.175 0.402,34.632 1.57,7.018 6.592,11.881 12.819,14.924 20.309,9.924 41.238,10.702 62.065,2.089 10.967,-4.535 16.937,-13.308 16.548,-25.688 -0.082,-2.625 -0.001,-5.253 -0.004,-7.88 -0.013,-8.479 -0.117,-8.608 -8.351,-8.646 -7.13,-0.033 -14.266,0.17 -21.388,-0.06 -4.89,-0.158 -7.587,1.296 -6.882,6.699 0.217,1.658 0.102,3.379 -0.02,5.059 -0.43,5.948 -5.903,10.111 -11.817,9.047 -6.142,-1.104 -9.775,-6.519 -8.3,-12.425 1.336,-5.348 5.148,-8.69 9.709,-11.114 8.445,-4.488 17.069,-8.64 25.562,-13.039 8.63,-4.47 16.567,-9.81 20.407,-19.286 5.278,-13.022 4.808,-26.521 1.568,-39.748 -2.281,-9.315 -9.579,-15.116 -18.169,-18.804 -18.191,-7.808 -36.898,-8.262 -55.516,-2.048 -15.571,5.199 -22.991,16.612 -22.915,33.512 0.062,13.909 -1.8,12.548 12.632,12.63 C -4.503,0.014 -2.251,0.003 0,0" style="fill:#0f37a8;fill-opacity:1;fill-rule:nonzero;stroke:none" id="path38"/></g><g id="g40" transform="translate(992.5762,544.1899)"><path d="m 0,0 c 0,-11.822 0.015,-23.643 -0.011,-35.464 -0.007,-3.079 0.317,-6.086 2.555,-8.389 2.688,-2.766 6.099,-3.746 9.81,-2.73 3.815,1.043 6.198,3.76 6.356,7.708 0.27,6.743 0.163,13.5 0.186,20.253 0.009,2.978 -1.871,3.877 -4.452,3.764 -3.653,-0.16 -4.995,1.64 -4.903,5.141 0.482,18.388 -3.683,15.298 14.939,15.578 8.63,0.13 17.265,-0.099 25.894,0.063 4.202,0.079 6.124,-1.273 6.048,-5.814 -0.23,-13.694 0.105,-27.401 -0.229,-41.09 -0.399,-16.411 -7.175,-25.474 -22.877,-30.112 -19.004,-5.616 -37.831,-5.438 -55.683,4.284 -10.079,5.488 -15.116,14.427 -15.24,25.824 -0.279,25.7 -0.501,51.404 -0.392,77.105 0.083,19.271 12.797,32.583 34.476,35.693 12.502,1.793 25.05,1.213 37.252,-2.996 C 53.866,61.872 56.642,45.646 55.91,28.63 55.802,26.1 54.044,25.041 51.708,25.029 42.139,24.983 32.57,24.993 23.001,24.998 19.917,25 18.698,26.679 18.737,29.649 c 0.037,2.811 0.129,5.657 -0.24,8.43 -0.688,5.162 -4.412,8.132 -9.308,7.79 C 3.631,45.481 0.137,42.394 0.072,37.153 -0.08,24.77 0.023,12.385 0.023,0 Z" style="fill:#0f37a8;fill-opacity:1;fill-rule:nonzero;stroke:none" id="path42"/></g><g id="g44" transform="translate(224.252,611.0576)"><path d="m 0,0 c 8.443,-0.005 16.888,-0.112 25.328,0.044 3.754,0.07 5.355,-1.594 5.962,-5.143 7.239,-42.324 14.514,-84.642 21.899,-126.941 0.715,-4.096 -0.102,-5.979 -4.611,-5.895 -9.378,0.174 -18.763,0.164 -28.141,0.003 -3.955,-0.067 -5.698,1.466 -6.205,5.422 -4.072,31.795 -8.273,63.574 -12.472,95.352 -0.227,1.718 0.37,4.417 -2.218,4.443 -2.264,0.023 -1.696,-2.516 -1.9,-4.051 -4.178,-31.405 -8.42,-62.803 -12.353,-94.239 -0.645,-5.154 -2.478,-7.182 -7.762,-6.976 -8.805,0.342 -17.635,0.217 -26.45,0.049 -4.539,-0.087 -5.89,1.54 -5.087,6.093 7.425,42.104 14.747,84.226 21.936,126.37 0.725,4.248 2.656,5.626 6.746,5.532 C -16.889,-0.13 -8.443,0.005 0,0" style="fill:#0f37a8;fill-opacity:1;fill-rule:nonzero;stroke:none" id="path46"/></g></g></g></g></svg>